

[center][center]:::::::::::::Enjoy:Another:Release:From:T0XiC::::::::::::::



File::Unstoppable.2010.R5.LiNE.AC3.XViD-T0XiC-iNK

Video: Unstoppable 2010 R5 XviD MiC 5.1 AC3-FLAWL3SS , thanks dillon bro :)

Audio: Our Own, thanks OneTwo mate, and iNk\'s magic touch

Language::English

IMDB: http://www.imdb.com/title/tt0477080/



Synopsis::With an unmanned, half-mile-long freight train barreling toward a city,



a veteran engineer and a young conductor race against the clock to prevent a



catastrophe.



Specs::



General



Format                           : AVI

Format/Info                      : Audio Video Interleave

File size                        : 1.41 GiB

Duration                         : 1h 34mn

Overall bit rate                 : 2 140 Kbps





Video

ID                               : 0

Format                           : MPEG-4 Visual

Format profile                   : Advanced Simple@L5

Format settings, BVOP            : Yes

Format settings, QPel            : No

Format settings, GMC             : No warppoints

Format settings, Matrix          : Default (H.263)

Muxing mode                      : Packed bitstream

Codec ID                         : XVID

Codec ID/Hint                    : XviD

Duration                         : 1h 34mn

Bit rate                         : 1 682 Kbps

Width                            : 720 pixels

Height                           : 304 pixels

Display aspect ratio             : 2.35:1

Frame rate                       : 25.000 fps

Color space                      : YUV

Chroma subsampling               : 4:2:0

Bit depth                        : 8 bits

Scan type                        : Progressive

Bits/(Pixel*Frame)               : 0.307

Stream size                      : 1.11 GiB (79%)

Writing library                  : XviD 1.2.1 (UTC 2008-12-04)



Audio

ID                               : 1

Format                           : AC-3

Format/Info                      : Audio Coding 3

Mode extension                   : CM (complete main)

Codec ID                         : 2000

Duration                         : 1h 34mn

Bit rate mode                    : Constant

Bit rate                         : 448 Kbps

Channel(s)                       : 6 channels

Channel positions                : Front: L C R, Side: L R, LFE

Sampling rate                    : 48.0 KHz

Bit depth                        : 16 bits

Stream size                      : 303 MiB (21%)

Alignment                        : Split accross interleaves

Interleave, duration             : 40 ms (1.00 video frame)

Interleave, preload duration     : 500 ms







NOTES:: Huge thanks to OneTwo for the LiNE. An amazing job by iNk as always,



fixed the audio up, created 5.1 and then synced it, much appreciated bro :)

check sample before downloading and commenting, enjoy



::::::::::::::Hats Off To::::::::::::::

::IMAGiNE,FLAWL3SS,MTV,iNK,bob,Tranz,Vik,everyone on utn and PA::

             \"And to all of you who support us, Thank you\"



::Why Complain? Whats Free Is Free::





::We are looking for unreleased DVD\'s, Screeners, New Music Releases, R5\'s,



Audio, Cams, Silvers,

And Any Other Good Sources You Have To Offer contact us:



t0xicreleases@hushmail.com[/center]

